<svg xmlns="http://www.w3.org/2000/svg" width="757.261" height="853.863" viewBox="0 0 757.261 853.863">
  <g id="Group_16" data-name="Group 16" transform="translate(-789.669 -164.067)">
    <g id="corona-5206890" transform="matrix(0.875, 0.485, -0.485, 0.875, 1248.697, 919.374)">
      <g id="Outline-Extra-fett" transform="translate(-643.721 -387.252) rotate(-22.5)">
        <path id="Path_1" data-name="Path 1" d="M316.5,98.584c.541-10.783.893-19.691.893-24.8,0-13.438-7-18.82-12.362-24.239-5.4-5.463-9.57-11.015-9.57-19.813,0-12.224,6.9-19.871,15.837-24.372C319.1,1.43,328.507.091,335.014,0c6.276-.084,15.652,1.13,23.47,4.925,8.982,4.36,15.94,11.882,15.94,23.833,0,9.246-4.141,14.968-9.45,20.514-5.366,5.607-12.4,10.989-12.481,24.646-.024,3.536.414,12.8,1.073,24.768a235.459,235.459,0,0,1,57.87,12.068c1.469-7.635-1.425-12.986-3.415-17.991-2.583-6.5-4.07-12.636-.947-20.026,4.343-10.284,12.837-14.284,21.93-14.905,7.828-.534,16.083,1.637,21.5,3.839a49.681,49.681,0,0,1,17.7,12.3c5.985,6.854,9.128,15.655,4.878,25.717-3.277,7.757-8.748,11.113-15.152,13.891-5.053,2.192-10.961,3.868-15.505,10.386a237.412,237.412,0,0,1,46.149,31.036c8.219-7.43,14.951-13.644,18.636-17.329,9.5-9.5,8.358-18.258,8.4-25.88.04-7.684,1.021-14.556,7.243-20.777,8.643-8.644,18.929-9.173,28.431-6.035,8.289,2.738,15.891,8.445,20.555,12.985,4.5,4.378,10.267,11.867,13.113,20.078,3.267,9.434,2.869,19.673-5.582,28.124-6.539,6.538-13.512,7.657-21.188,7.824-7.759.169-16.535-1-26.253,8.6-2.558,2.524-8.957,9.564-17.143,18.706A237.378,237.378,0,0,1,545.79,227.8c6.856-4.48,8.557-10.528,10.69-15.645,2.689-6.455,5.912-11.885,13.308-14.993,10.291-4.327,19.163-1.257,26.1,4.648,5.976,5.085,10.367,12.4,12.7,17.761a49.677,49.677,0,0,1,4.074,21.165c-.505,9.085-4.4,17.579-14.471,21.812-7.764,3.262-14.023,1.843-20.545-.642-5.26-2-10.785-5.016-18.867-3.292a235.553,235.553,0,0,1,11.859,57.745c11.076.559,20.241.925,25.456.925,13.438,0,18.819-7,24.24-12.36,5.462-5.4,11.014-9.571,19.813-9.571,12.223,0,19.871,6.9,24.371,15.839,3.925,7.8,5.265,17.207,5.353,23.714.084,6.276-1.13,15.654-4.925,23.47-4.36,8.982-11.883,15.94-23.833,15.94-9.246,0-14.968-4.14-20.514-9.448-5.607-5.368-10.988-12.4-24.646-12.483-3.589-.022-13.076.428-25.311,1.1a235.4,235.4,0,0,1-12.274,58.989c7.947,1.747,13.443-1.279,18.575-3.339,6.5-2.612,12.636-4.114,20.011-1,10.255,4.333,14.238,12.838,14.835,21.963.512,7.836-1.673,16.109-3.882,21.535a50.146,50.146,0,0,1-12.3,17.751c-6.859,6.022-15.659,9.187-25.692,4.948-7.74-3.27-11.084-8.753-13.842-15.175-2.234-5.2-3.917-11.319-10.887-15.9a237.545,237.545,0,0,1-30.367,45.273c7.368,8.149,13.531,14.825,17.193,18.488,9.5,9.5,18.259,8.358,25.881,8.4,7.685.042,14.555,1.023,20.777,7.243,8.645,8.645,9.174,18.929,6.035,28.433-2.738,8.289-8.444,15.891-12.985,20.553-4.377,4.5-11.866,10.269-20.078,13.113-9.433,3.269-19.672,2.869-28.123-5.58-6.537-6.539-7.656-13.512-7.824-21.188-.169-7.759,1-16.535-8.6-26.253-2.5-2.534-9.44-8.844-18.459-16.922a237.5,237.5,0,0,1-47.458,31.73c4.426,6.328,10.276,7.966,15.242,10.013,6.475,2.67,11.917,5.882,15.018,13.263,4.315,10.264,1.225,19.133-4.721,26.079-5.107,5.964-12.449,10.36-17.819,12.7a50.133,50.133,0,0,1-21.2,4.113c-9.117-.48-17.625-4.36-21.845-14.4-3.255-7.747-1.818-14.006.692-20.528,1.968-5.11,4.9-10.468,3.477-18.178a235.539,235.539,0,0,1-56.639,11.6c-.544,10.827-.9,19.77-.9,24.9,0,13.438,7,18.819,12.36,24.24,5.4,5.462,9.571,11.014,9.571,19.813,0,12.223-6.9,19.871-15.839,24.371-7.8,3.925-17.207,5.265-23.714,5.353-6.276.084-15.652-1.13-23.47-4.925-8.982-4.36-15.94-11.883-15.94-23.833,0-9.246,4.14-14.968,9.449-20.514,5.368-5.607,12.4-10.988,12.483-24.646.022-3.528-.413-12.754-1.068-24.676A235.717,235.717,0,0,1,258.41,559.52c-1.41,7.567,1.464,12.886,3.442,17.863,2.583,6.5,4.07,12.634.947,20.026-4.345,10.284-12.837,14.284-21.93,14.906-7.828.534-16.083-1.638-21.5-3.84a49.679,49.679,0,0,1-17.7-12.3c-5.983-6.854-9.127-15.655-4.876-25.717,3.275-7.754,8.744-11.11,15.146-13.888,4.989-2.165,10.813-3.825,15.337-10.139a237.385,237.385,0,0,1-46.755-31.206c-7.86,7.112-14.28,13.047-17.845,16.612-9.5,9.5-8.358,18.258-8.4,25.88-.042,7.684-1.021,14.555-7.243,20.777-8.644,8.645-18.929,9.174-28.433,6.035-8.289-2.738-15.89-8.444-20.553-12.985-4.5-4.377-10.269-11.866-13.113-20.078-3.268-9.433-2.869-19.672,5.581-28.123,6.538-6.539,13.511-7.658,21.187-7.824,7.76-.17,16.536,1,26.254-8.6,2.475-2.445,8.555-9.123,16.37-17.844A237.384,237.384,0,0,1,122.9,442.085c-5.924,4.409-7.523,10.1-9.544,14.929-2.678,6.406-5.908,11.789-13.261,14.879-10.292,4.327-19.164,1.257-26.106-4.648-5.975-5.085-10.367-12.4-12.7-17.761a49.692,49.692,0,0,1-4.073-21.165c.5-9.083,4.4-17.578,14.471-21.81,7.708-3.24,13.934-1.865,20.406.586,5,1.894,10.211,4.744,17.619,3.606a235.516,235.516,0,0,1-11.663-57.137c-10.541-.526-19.239-.868-24.266-.868-13.438,0-18.82,7-24.239,12.361-5.463,5.4-11.015,9.57-19.813,9.57-12.224,0-19.871-6.9-24.372-15.837C1.43,350.991.091,341.582,0,335.073c-.084-6.274,1.13-15.652,4.925-23.468,4.36-8.984,11.882-15.94,23.833-15.94,9.246,0,14.968,4.14,20.514,9.448,5.607,5.368,10.989,12.4,24.646,12.483,3.47.022,12.456-.4,24.107-1.038a235.534,235.534,0,0,1,11.589-57.1c-7.409-1.284-12.654,1.585-17.567,3.557-6.488,2.6-12.617,4.1-19.98.987-10.256-4.333-14.239-12.84-14.835-21.963-.512-7.836,1.673-16.109,3.881-21.535a50.123,50.123,0,0,1,12.3-17.751c6.859-6.022,15.658-9.187,25.692-4.95,7.714,3.26,11.061,8.716,13.813,15.109,2.124,4.937,3.728,10.7,9.818,15.2A237.544,237.544,0,0,1,154.69,180.4c-6.442-7.1-11.8-12.874-15.109-16.185-9.5-9.5-18.258-8.358-25.88-8.4-7.684-.042-14.556-1.021-20.777-7.243-8.644-8.644-9.174-18.929-6.035-28.433,2.737-8.289,8.445-15.89,12.985-20.553,4.378-4.5,11.867-10.269,20.078-13.113,9.434-3.268,19.673-2.869,28.124,5.581,6.538,6.538,7.657,13.512,7.824,21.187.169,7.76-1,16.536,8.6,26.254,2.295,2.324,8.325,7.828,16.274,14.961a237.486,237.486,0,0,1,46.142-30.811c-4.446-6.577-10.4-8.234-15.445-10.314-6.476-2.67-11.918-5.881-15.02-13.262-4.313-10.264-1.223-19.134,4.723-26.079,5.107-5.965,12.447-10.36,17.819-12.7a50.122,50.122,0,0,1,21.2-4.112c9.115.48,17.623,4.36,21.844,14.4,3.257,7.746,1.82,14.005-.693,20.528-1.988,5.164-4.962,10.583-3.427,18.428A235.563,235.563,0,0,1,316.5,98.584Z" transform="translate(0 0)" fill="#c74b1a" fill-rule="evenodd"/>
      </g>
      <g id="Group_1" data-name="Group 1" transform="translate(-653.077 -391.127) rotate(-22.5)">
        <path id="Path_2" data-name="Path 2" d="M316.806,99.158c.362-7.81.586-14.2.586-18.217,0-10.76-6-14.865-10.291-19.2-6.739-6.813-11.64-13.876-11.64-24.849,0-15.383,8.529-25.1,19.778-30.768C324.068,1.676,334.711.1,342.078,0c7.139-.1,17.8,1.326,26.693,5.643,11.363,5.516,19.974,15.157,19.974,30.275,0,11.428-4.876,18.611-11.438,25.466-4.342,4.537-10.424,8.688-10.493,19.74-.019,2.839.271,9.436.733,18.169a242.37,242.37,0,0,1,43.209,8.6c-.681-1.9-1.555-3.632-2.229-5.325-3.282-8.258-4.856-16.068-.888-25.458,5.573-13.194,16.373-18.466,28.039-19.263,8.982-.613,18.467,1.823,24.681,4.35,6.027,2.451,14.464,7.436,20.393,14.227,7.718,8.841,11.563,20.234,6.079,33.212-4.124,9.764-10.837,14.176-18.9,17.673-1.847.8-3.88,1.448-5.888,2.424a244.491,244.491,0,0,1,33.486,22.933c6-5.459,10.852-9.981,13.768-12.9,7.609-7.609,6.269-14.753,6.3-20.856.052-9.582,1.58-18.043,9.339-25.8,10.877-10.877,23.783-11.72,35.742-7.771,9.386,3.1,18.023,9.513,23.3,14.653,5.117,4.98,11.649,13.523,14.884,22.864,4.135,11.934,3.407,24.841-7.284,35.531-8.08,8.081-16.607,9.713-26.095,9.92-6.279.137-13.514-1.228-21.379,6.538-2.064,2.037-6.675,7.076-12.715,13.8a244.242,244.242,0,0,1,23.128,34.072c1.058-2.094,1.7-4.239,2.507-6.161,3.417-8.2,7.745-14.892,17.143-18.841,13.2-5.55,24.615-1.781,33.521,5.8,6.857,5.836,11.944,14.2,14.626,20.351,2.6,5.964,5.159,15.425,4.658,24.427-.65,11.718-5.856,22.555-18.845,28.014-9.772,4.108-17.659,2.578-25.869-.549-2.04-.777-4.114-1.838-6.453-2.554a242.473,242.473,0,0,1,8.562,43.463c8.114.381,14.757.617,18.889.617,10.759,0,14.864-6,19.2-10.291,6.812-6.738,13.876-11.64,24.849-11.64,15.382,0,25.1,8.53,30.767,19.78,4.446,8.827,6.018,19.47,6.116,26.837.1,7.14-1.326,17.8-5.642,26.693-5.516,11.362-15.157,19.974-30.275,19.974-11.428,0-18.611-4.874-25.466-11.437-4.537-4.343-8.687-10.426-19.739-10.495-2.895-.018-9.7.283-18.693.762a242.344,242.344,0,0,1-8.9,44.66c2.157-.709,4.081-1.719,5.959-2.473,8.268-3.321,16.087-4.913,25.468-.95,13.167,5.562,18.429,16.38,19.194,28.093.586,8.984-1.862,18.477-4.394,24.7-2.455,6.035-7.437,14.486-14.21,20.434-8.852,7.774-20.252,11.637-33.2,6.165-9.754-4.121-14.159-10.852-17.635-18.946-.885-2.059-1.575-4.357-2.741-6.591a244.329,244.329,0,0,1-22.455,32.921c5.4,5.936,9.883,10.742,12.779,13.639,7.609,7.609,14.752,6.269,20.855,6.3,9.583.052,18.043,1.58,25.8,9.339,10.879,10.877,11.721,23.783,7.772,35.742-3.1,9.386-9.514,18.023-14.655,23.3-4.98,5.117-13.522,11.649-22.863,14.884-11.935,4.135-24.843,3.407-35.531-7.283-8.08-8.082-9.713-16.607-9.92-26.094-.136-6.279,1.228-13.516-6.537-21.379-2.012-2.037-6.946-6.556-13.533-12.478a244.656,244.656,0,0,1-34.6,23.591c1.808.81,3.626,1.375,5.28,2.057,8.237,3.4,14.944,7.72,18.892,17.108,5.536,13.177,1.747,24.593-5.885,33.509-5.855,6.84-14.238,11.925-20.395,14.609-5.971,2.6-15.44,5.174-24.442,4.7-11.765-.62-22.62-5.818-28.069-18.777-4.1-9.762-2.553-17.657.612-25.877.7-1.8,1.616-3.634,2.32-5.649a242.483,242.483,0,0,1-41.945,8.2c-.366,7.866-.591,14.3-.591,18.341,0,10.759,6,14.864,10.291,19.2,6.739,6.812,11.64,13.876,11.64,24.849,0,15.382-8.53,25.1-19.78,30.767-8.827,4.446-19.47,6.018-26.838,6.116-7.14.1-17.8-1.326-26.693-5.642-11.362-5.516-19.974-15.157-19.974-30.275,0-11.428,4.876-18.611,11.437-25.466,4.344-4.537,10.426-8.687,10.495-19.739.019-2.825-.27-9.373-.728-18.046a242.451,242.451,0,0,1-43.194-8.37c.676,1.867,1.533,3.57,2.2,5.236,3.284,8.257,4.857,16.068.89,25.458-5.573,13.194-16.373,18.466-28.039,19.263-8.983.613-18.467-1.823-24.681-4.35-6.027-2.451-14.464-7.435-20.393-14.227-7.718-8.842-11.563-20.233-6.079-33.213,4.124-9.76,10.835-14.173,18.892-17.67,1.73-.75,3.624-1.366,5.508-2.239a244.457,244.457,0,0,1-33.867-23.05c-5.639,5.142-10.2,9.4-12.99,12.188-7.609,7.609-6.27,14.754-6.3,20.856-.052,9.583-1.581,18.043-9.34,25.8-10.878,10.877-23.782,11.721-35.742,7.772-9.385-3.1-18.023-9.514-23.3-14.655-5.116-4.98-11.648-13.522-14.884-22.865-4.134-11.934-3.406-24.841,7.284-35.529,8.081-8.082,16.607-9.713,26.094-9.92,6.279-.137,13.515,1.228,21.379-6.537,1.973-1.948,6.275-6.642,11.929-12.923a244.49,244.49,0,0,1-23.091-33.789c-.675,1.606-1.194,3.2-1.807,4.669-3.406,8.146-7.742,14.788-17.092,18.717-13.2,5.55-24.615,1.781-33.52-5.8-6.858-5.835-11.945-14.2-14.627-20.353-2.6-5.963-5.159-15.423-4.659-24.423.651-11.72,5.857-22.556,18.846-28.015,9.712-4.082,17.564-2.6,25.718.492,1.615.613,3.247,1.407,5.01,2.072a242.528,242.528,0,0,1-8.157-42.053c-7.575-.349-13.775-.563-17.7-.563-10.76,0-14.865,6-19.2,10.293-6.813,6.738-13.876,11.639-24.849,11.639-15.383,0-25.1-8.529-30.768-19.778C1.676,360.34.1,349.7,0,342.329c-.1-7.139,1.326-17.8,5.643-26.691,5.516-11.362,15.157-19.974,30.275-19.974,11.428,0,18.611,4.874,25.466,11.437,4.537,4.343,8.688,10.426,19.74,10.495,2.763.017,9.09-.258,17.486-.7a242.537,242.537,0,0,1,8.14-42.168c-1.726.66-3.316,1.462-4.875,2.087-8.254,3.314-16.066,4.9-25.435.938-13.166-5.563-18.428-16.38-19.193-28.093-.587-8.983,1.863-18.477,4.394-24.7,2.455-6.035,7.437-14.486,14.21-20.434,8.853-7.774,20.252-11.637,33.2-6.165,9.725,4.108,14.135,10.813,17.6,18.873.692,1.609,1.264,3.361,2.033,5.115a244.41,244.41,0,0,1,23.646-34.6c-4.458-4.869-8.155-8.813-10.662-11.32-7.609-7.609-14.753-6.269-20.856-6.3-9.582-.052-18.043-1.581-25.8-9.34-10.877-10.877-11.72-23.782-7.771-35.742,3.1-9.385,9.513-18.023,14.653-23.3,4.98-5.116,13.523-11.648,22.864-14.884C136.7,82.732,149.609,83.46,160.3,94.15c8.081,8.081,9.713,16.607,9.92,26.094.137,6.279-1.228,13.515,6.537,21.379,1.783,1.806,5.87,5.566,11.371,10.529A244.572,244.572,0,0,1,221.62,129.37c-1.953-.922-3.931-1.523-5.718-2.26-8.237-3.4-14.946-7.719-18.892-17.107-5.538-13.176-1.749-24.594,5.883-33.51,5.855-6.839,14.238-11.924,20.4-14.609,5.971-2.6,15.44-5.173,24.44-4.7C259.5,57.8,270.352,63,275.8,75.961c4.1,9.761,2.554,17.656-.612,25.875-.723,1.88-1.693,3.787-2.4,5.906A242.464,242.464,0,0,1,316.806,99.158Zm7.385,13.727a7.159,7.159,0,0,0,6.62-6.782c.549-10.939.9-19.976.9-25.162,0-16.119-8-22.775-14.431-29.275-4.07-4.114-7.5-8.151-7.5-14.778,0-9.066,5.267-14.639,11.9-17.977,6.765-3.406,14.943-4.512,20.59-4.588a47.771,47.771,0,0,1,20.246,4.207c6.6,3.205,11.907,8.607,11.907,17.392,0,7.065-3.4,11.325-7.462,15.563-6.392,6.678-14.368,13.286-14.469,29.553-.024,3.6.414,13.027,1.083,25.206a7.161,7.161,0,0,0,6.577,6.745,228.309,228.309,0,0,1,56.113,11.7,7.158,7.158,0,0,0,9.361-5.417c1.791-9.3-1.368-15.891-3.793-21.99-1.884-4.742-3.284-9.2-1.006-14.595,3.117-7.375,9.3-10.1,15.824-10.548,6.67-.456,13.7,1.451,18.311,3.328a42.007,42.007,0,0,1,15,10.379c4.249,4.867,6.694,11.076,3.675,18.221-2.43,5.751-6.658,8.049-11.4,10.108-6.108,2.65-13.039,4.982-18.531,12.859a7.16,7.16,0,0,0,2.6,10.465,230.253,230.253,0,0,1,44.757,30.1,7.16,7.16,0,0,0,9.465-.122c8.337-7.535,15.16-13.84,18.9-17.577,11.4-11.4,10.446-21.762,10.495-30.9.032-5.787.46-11.067,5.147-15.753,6.411-6.411,14.075-6.626,21.124-4.3,7.193,2.375,13.756,7.377,17.8,11.316a47.788,47.788,0,0,1,11.342,17.291c2.4,6.935,2.334,14.5-3.878,20.717-5,5-10.416,5.6-16.28,5.729-9.243.2-19.554-.765-31.129,10.665-2.6,2.568-9.118,9.724-17.446,19.024a7.161,7.161,0,0,0-.115,9.423A230.21,230.21,0,0,1,546.567,238.2a7.162,7.162,0,0,0,10.3,2.751c8.375-5.472,10.778-12.636,13.383-18.885,1.963-4.711,4.076-8.879,9.472-11.147,7.381-3.1,13.714-.735,18.691,3.5,5.093,4.333,8.79,10.6,10.781,15.17a41.984,41.984,0,0,1,3.486,17.9c-.359,6.451-2.945,12.6-10.1,15.607-5.755,2.419-10.387,1.112-15.222-.73-6.369-2.426-13.12-5.691-22.907-3.606a7.159,7.159,0,0,0-5.285,9.31,228.4,228.4,0,0,1,11.5,55.993,7.161,7.161,0,0,0,6.778,6.6c11.233.566,20.528.933,25.817.933,16.119,0,22.774-8,29.274-14.43,4.114-4.069,8.151-7.5,14.779-7.5,9.066,0,14.638,5.268,17.975,11.9,3.407,6.766,4.512,14.944,4.588,20.59.072,5.412-.933,13.505-4.207,20.246-3.2,6.6-8.606,11.907-17.391,11.907-7.066,0-11.325-3.4-15.563-7.46-6.677-6.392-13.286-14.368-29.552-14.471-3.651-.022-13.3.428-25.751,1.114a7.16,7.16,0,0,0-6.744,6.6,228.33,228.33,0,0,1-11.9,57.2A7.158,7.158,0,0,0,564,426.626c9.718,2.136,16.506-1.168,22.781-3.688,4.734-1.9,9.184-3.317,14.555-1.048,7.347,3.1,10.05,9.3,10.476,15.832.436,6.689-1.484,13.74-3.368,18.371a42.448,42.448,0,0,1-10.394,15.069c-4.866,4.273-11.064,6.741-18.181,3.734-5.728-2.419-8.008-6.652-10.05-11.4-2.709-6.311-5.078-13.5-13.531-19.06a7.16,7.16,0,0,0-10.3,2.7,230.405,230.405,0,0,1-29.452,43.906,7.16,7.16,0,0,0,.138,9.447c7.474,8.266,13.728,15.034,17.443,18.749,11.4,11.4,21.761,10.448,30.9,10.5,5.787.032,11.068.46,15.753,5.147,6.411,6.411,6.626,14.075,4.3,21.124-2.374,7.193-7.376,13.757-11.315,17.8-3.776,3.877-10.21,8.889-17.291,11.34-6.935,2.4-14.5,2.334-20.717-3.878-5-5-5.6-10.414-5.728-16.279-.2-9.243.765-19.556-10.665-31.129-2.546-2.58-9.6-9.005-18.777-17.225a7.159,7.159,0,0,0-9.442-.1,230.327,230.327,0,0,1-46.026,30.775,7.158,7.158,0,0,0-2.633,10.491c5.4,7.718,12.321,10.031,18.378,12.529,4.718,1.946,8.889,4.042,11.148,9.416,3.092,7.353.7,13.674-3.56,18.649-4.359,5.092-10.657,8.8-15.241,10.795a42.424,42.424,0,0,1-17.964,3.525c-6.466-.34-12.626-2.9-15.62-10.025-2.409-5.732-1.085-10.353.773-15.18,2.379-6.178,5.557-12.725,3.838-22.048a7.157,7.157,0,0,0-9.329-5.487,228.491,228.491,0,0,1-54.922,11.251,7.159,7.159,0,0,0-6.583,6.778c-.551,10.982-.906,20.054-.906,25.256,0,16.119,8,22.774,14.43,29.274,4.069,4.114,7.5,8.151,7.5,14.779,0,9.066-5.268,14.638-11.9,17.975-6.766,3.407-14.944,4.512-20.59,4.588-5.412.072-13.505-.933-20.246-4.207-6.6-3.2-11.907-8.606-11.907-17.391,0-7.066,3.405-11.325,7.46-15.563,6.394-6.677,14.368-13.286,14.471-29.552.022-3.59-.413-12.98-1.078-25.114a7.161,7.161,0,0,0-6.613-6.748,228.568,228.568,0,0,1-56.155-11.41,7.16,7.16,0,0,0-9.334,5.469c-1.72,9.216,1.417,15.76,3.824,21.822,1.885,4.741,3.285,9.2,1.006,14.594-3.115,7.374-9.3,10.1-15.822,10.549-6.67.455-13.7-1.452-18.311-3.328a42.013,42.013,0,0,1-15-10.38c-4.249-4.868-6.694-11.076-3.675-18.221,2.428-5.749,6.655-8.047,11.4-10.106,6.022-2.613,12.848-4.918,18.307-12.538a7.16,7.16,0,0,0-2.581-10.554,230.321,230.321,0,0,1-45.344-30.266,7.16,7.16,0,0,0-9.457.135c-7.974,7.216-14.485,13.241-18.1,16.858-11.4,11.4-10.446,21.761-10.5,30.9-.032,5.787-.46,11.068-5.146,15.753-6.411,6.411-14.076,6.626-21.124,4.3-7.193-2.374-13.757-7.376-17.8-11.315A47.782,47.782,0,0,1,98.868,556.28c-2.4-6.935-2.333-14.5,3.878-20.716,5-5,10.415-5.6,16.28-5.728,9.242-.2,19.555.765,31.129-10.665,2.52-2.488,8.715-9.282,16.671-18.159a7.161,7.161,0,0,0,.1-9.44A230.258,230.258,0,0,1,136.445,446a7.161,7.161,0,0,0-10.659-2.5c-7.185,5.348-9.424,12.05-11.875,17.913-1.951,4.665-4.073,8.788-9.429,11.039-7.381,3.1-13.713.734-18.691-3.5C80.7,464.617,77,458.346,75.01,453.78a42,42,0,0,1-3.486-17.9c.358-6.451,2.945-12.6,10.1-15.607,5.7-2.4,10.3-1.134,15.094.682,6,2.275,12.341,5.354,21.245,3.986a7.162,7.162,0,0,0,5.7-9.369,228.357,228.357,0,0,1-11.308-55.4,7.159,7.159,0,0,0-6.783-6.6c-10.7-.532-19.522-.876-24.623-.876-16.119,0-22.775,8-29.275,14.43-4.114,4.071-8.151,7.5-14.778,7.5-9.066,0-14.639-5.267-17.977-11.9-3.406-6.766-4.512-14.944-4.588-20.592a47.764,47.764,0,0,1,4.207-20.245c3.205-6.6,8.607-11.907,17.392-11.907,7.065,0,11.325,3.4,15.563,7.46,6.678,6.392,13.286,14.368,29.553,14.471,3.533.022,12.681-.4,24.543-1.048a7.162,7.162,0,0,0,6.748-6.6A228.377,228.377,0,0,1,123.565,268.9,7.161,7.161,0,0,0,118,259.561c-9.02-1.562-15.475,1.567-21.457,3.968-4.723,1.9-9.166,3.3-14.526,1.036-7.347-3.1-10.049-9.3-10.476-15.834-.437-6.687,1.484-13.738,3.368-18.37A42.427,42.427,0,0,1,85.3,215.292c4.865-4.273,11.063-6.741,18.18-3.734,5.7,2.409,7.988,6.615,10.022,11.342,2.561,5.952,4.8,12.707,12.139,18.132a7.159,7.159,0,0,0,10.644-2.524,230.34,230.34,0,0,1,30.985-46.277,7.16,7.16,0,0,0-.122-9.484c-6.543-7.213-11.985-13.075-15.349-16.438-11.4-11.4-21.762-10.446-30.9-10.5-5.787-.032-11.067-.46-15.753-5.146-6.411-6.411-6.627-14.076-4.3-21.125,2.375-7.192,7.377-13.757,11.316-17.8A47.767,47.767,0,0,1,129.455,100.4c6.935-2.4,14.5-2.333,20.717,3.878,5,5,5.6,10.415,5.729,16.28.2,9.242-.765,19.555,10.665,31.129,2.34,2.369,8.483,7.986,16.586,15.258a7.161,7.161,0,0,0,9.427.122,230.415,230.415,0,0,1,44.751-29.883,7.161,7.161,0,0,0,2.681-10.389c-5.432-8.035-12.486-10.383-18.648-12.924-4.716-1.945-8.889-4.041-11.148-9.416-3.09-7.353-.7-13.673,3.562-18.648,4.357-5.092,10.656-8.8,15.239-10.8a42.435,42.435,0,0,1,17.964-3.525c6.466.341,12.626,2.9,15.62,10.025,2.409,5.733,1.085,10.354-.773,15.181-2.408,6.252-5.631,12.878-3.772,22.376a7.161,7.161,0,0,0,9.337,5.4A228.44,228.44,0,0,1,324.191,112.885Z" transform="translate(0 0)" fill="#54a7d1" fill-rule="evenodd"/>
      </g>
      <g id="Virus-12" transform="translate(-635.357 -383.787) rotate(-22.5)">
        <path id="Path_3" data-name="Path 3" d="M316.2,98.213c.709-13.462,1.195-24.781,1.195-30.834,0-26.392-21.931-26.911-21.931-44.053C295.461,4.525,317.223.157,328.7,0,339.7-.144,361.619,4.12,361.619,22.36s-21.765,18.47-21.931,45.12c-.027,4.127.558,15.957,1.392,30.807a229.233,229.233,0,0,1,68.03,14.343c.035-.083.073-.167.106-.25,9.113-21.57-8.566-29.539-2.647-43.55,6.492-15.367,25.72-11.45,35.117-7.628,9.014,3.665,25.387,14.689,19.089,29.6s-24.1,7.609-33.439,29.332c-.032.073-.064.15-.1.229a231.09,231.09,0,0,1,54.981,36.814c10.225-9.2,18.762-17.027,23.107-21.373,18.663-18.662,3.521-34.537,15.643-46.658,13.293-13.294,31.769-1,39.993,7.01,7.885,7.678,20.368,26.189,7.47,39.087s-28.45-2.329-47.412,16.4c-2.975,2.938-11.1,11.907-21.192,23.206A231.113,231.113,0,0,1,536.5,230.026c.3-.121.58-.239.851-.352,21.586-9.073,14.5-27.124,28.521-33.017,15.379-6.463,26.4,9.769,30.46,19.067,3.89,8.918,7.91,28.243-7.011,34.514s-22.561-11.386-44.417-2.36q-.331.137-.738.313a229.4,229.4,0,0,1,14.072,67.863c13.741.726,25.321,1.227,31.469,1.227,26.391,0,26.91-21.931,44.053-21.931,18.8,0,23.168,21.761,23.321,33.236.148,11.005-4.116,32.921-22.356,32.921s-18.471-21.763-45.12-21.931c-4.178-.025-16.25.573-31.366,1.424a229.242,229.242,0,0,1-14.5,69.02c.312.135.607.261.888.379,21.492,9.079,29.488-8.667,43.445-2.77,15.31,6.468,11.352,25.756,7.516,35.189-3.681,9.044-14.72,25.49-29.572,19.215s-7.526-24.142-29.169-33.447c-.261-.113-.563-.239-.9-.376A231.241,231.241,0,0,1,499.866,482.2c9.13,10.149,16.9,18.621,21.225,22.944,18.663,18.663,34.537,3.521,46.658,15.642,13.295,13.295,1,31.771-7.011,39.994-7.676,7.885-26.189,20.368-39.086,7.47s2.328-28.45-16.4-47.412c-2.918-2.955-11.787-10.987-22.974-20.985a231.152,231.152,0,0,1-56.265,37.45c.034.081.066.158.1.236,9.039,21.508,27.156,14.392,33.026,28.361,6.439,15.322-9.863,26.361-19.2,30.433-8.951,3.9-28.337,7.962-34.584-6.9s11.475-22.535,2.483-44.311l-.069-.167A229.445,229.445,0,0,1,340.884,558.8c-.711,13.492-1.2,24.834-1.2,30.9,0,26.391,21.931,26.91,21.931,44.053,0,18.8-21.761,23.168-33.237,23.321-11.005.148-32.921-4.116-32.921-22.356s21.765-18.471,21.931-45.12c.025-4.123-.558-15.925-1.388-30.743a229.49,229.49,0,0,1-68.111-13.991l-.04.1c-9.113,21.571,8.566,29.54,2.647,43.549-6.492,15.367-25.72,11.45-35.117,7.627-9.014-3.665-25.387-14.688-19.089-29.6s24.09-7.612,33.43-29.314a231.174,231.174,0,0,1-55.666-36.975c-9.87,8.884-18.074,16.419-22.3,20.649-18.662,18.663-3.521,34.537-15.642,46.658-13.295,13.295-31.77,1-39.993-7.011-7.886-7.678-20.368-26.189-7.47-39.086s28.449,2.328,47.412-16.4c2.9-2.864,10.688-11.459,20.429-22.354a231.113,231.113,0,0,1-37.228-55.939c-21.011,9.137-14.131,26.964-28.048,32.814-15.379,6.463-26.4-9.769-30.46-19.067-3.89-8.918-7.909-28.243,7.01-34.514,14.791-6.217,22.43,11.084,43.856,2.588a229.393,229.393,0,0,1-13.962-67.539c-13.216-.694-24.308-1.166-30.278-1.166-26.392,0-26.911,21.931-44.053,21.931C4.525,361.821.157,340.062,0,328.585c-.148-11.005,4.116-32.92,22.356-32.92S40.83,317.428,67.48,317.6c4.067.025,15.612-.542,30.166-1.356a229.372,229.372,0,0,1,13.829-67.364c-21.392-8.953-29.383,8.711-43.314,2.824-15.31-6.468-11.352-25.756-7.515-35.187,3.68-9.046,14.719-25.491,29.572-19.215,14.79,6.249,7.586,23.992,28.894,33.327a231.273,231.273,0,0,1,37.761-56.684c-8.234-9.128-15.172-16.663-19.166-20.657-18.662-18.662-34.536-3.521-46.658-15.642-13.295-13.295-1-31.77,7.01-39.993,7.678-7.886,26.189-20.368,39.087-7.47s-2.329,28.449,16.4,47.413c2.723,2.757,10.628,9.936,20.767,19.01a231.262,231.262,0,0,1,54.9-36.505c-.078-.189-.155-.373-.229-.55-9.039-21.507-27.156-14.391-33.028-28.36-6.439-15.322,9.865-26.362,19.2-30.432,8.951-3.9,28.337-7.963,34.584,6.9s-11.475,22.533-2.485,44.309c.056.132.115.274.179.423A229.384,229.384,0,0,1,316.2,98.213Z" transform="translate(0 0)" fill="#ceecfc" fill-rule="evenodd"/>
      </g>
      <g id="Group_3" data-name="Group 3" transform="translate(-395.773 -422.879)">
        <g id="Group_2" data-name="Group 2" transform="translate(0 0)">
          <g id="circle835" transform="translate(109.203 420.573) rotate(-135.551)">
            <circle id="Ellipse_1" data-name="Ellipse 1" cx="13.923" cy="13.923" r="13.923" transform="translate(0 0)" fill="#54a7d1"/>
          </g>
          <g id="circle8351" transform="translate(227.69 39.378) rotate(-135.551)">
            <circle id="Ellipse_2" data-name="Ellipse 2" cx="13.923" cy="13.923" r="13.923" transform="translate(0 0)" fill="#54a7d1"/>
          </g>
          <g id="circle8352" transform="translate(319.125 130.358) rotate(-135.549)">
            <circle id="Ellipse_3" data-name="Ellipse 3" cx="10.57" cy="10.57" r="10.57" transform="translate(0 0)" fill="#54a7d1"/>
          </g>
          <g id="circle8353" transform="matrix(-0.714, -0.7, 0.7, -0.714, 13.858, 329.09)">
            <circle id="Ellipse_4" data-name="Ellipse 4" cx="9.646" cy="9.646" r="9.646" transform="translate(0 0)" fill="#54a7d1"/>
          </g>
          <g id="circle8354" transform="translate(15.338 216.685) rotate(-135.55)">
            <circle id="Ellipse_5" data-name="Ellipse 5" cx="10.743" cy="10.743" r="10.743" transform="translate(0 0)" fill="#54a7d1"/>
          </g>
          <g id="circle8355" transform="translate(150.914 38.062) rotate(-135.55)">
            <circle id="Ellipse_6" data-name="Ellipse 6" cx="10.743" cy="10.743" r="10.743" transform="translate(0 0)" fill="#54a7d1"/>
          </g>
          <g id="circle8356" transform="matrix(-0.714, -0.7, 0.7, -0.714, 183.311, 445.423)">
            <circle id="Ellipse_7" data-name="Ellipse 7" cx="10.853" cy="10.853" r="10.853" transform="translate(0 0)" fill="#54a7d1"/>
          </g>
          <g id="circle8357" transform="translate(268.503 426.417) rotate(-135.55)">
            <circle id="Ellipse_8" data-name="Ellipse 8" cx="11.753" cy="11.753" r="11.753" transform="translate(0 0)" fill="#54a7d1"/>
          </g>
          <g id="circle8358" transform="translate(45.859 107.892) rotate(-47.887)">
            <circle id="Ellipse_9" data-name="Ellipse 9" cx="13.923" cy="13.923" r="13.923" transform="translate(0 0)" fill="#54a7d1"/>
          </g>
          <g id="circle8359" transform="matrix(0.671, -0.742, 0.742, 0.671, 343.788, 322.125)">
            <circle id="Ellipse_10" data-name="Ellipse 10" cx="8.828" cy="8.828" r="8.828" transform="translate(0 0)" fill="#54a7d1"/>
          </g>
          <g id="circle83510" transform="matrix(0.671, -0.742, 0.742, 0.671, 353.635, 240.475)">
            <circle id="Ellipse_11" data-name="Ellipse 11" cx="8.828" cy="8.828" r="8.828" transform="translate(0 0)" fill="#54a7d1"/>
          </g>
          <g id="circle83511" transform="matrix(0.001, -1, 1, 0.001, 284.737, 204.287)">
            <circle id="Ellipse_12" data-name="Ellipse 12" cx="17.961" cy="17.961" r="17.961" transform="translate(0 0)" fill="#54a7d1"/>
          </g>
          <g id="circle83512" transform="translate(250.647 277.279)">
            <circle id="Ellipse_13" data-name="Ellipse 13" cx="17.695" cy="17.695" r="17.695" transform="translate(0 0)" fill="#54a7d1"/>
          </g>
          <g id="circle83513" transform="translate(113.862 316.221) rotate(-89.969)">
            <circle id="Ellipse_14" data-name="Ellipse 14" cx="19.099" cy="19.099" r="19.099" transform="translate(0 0)" fill="#54a7d1"/>
          </g>
          <g id="circle83514" transform="translate(68.189 206.577) rotate(-89.969)">
            <circle id="Ellipse_15" data-name="Ellipse 15" cx="19.099" cy="19.099" r="19.099" transform="translate(0 0)" fill="#54a7d1"/>
          </g>
          <g id="circle83515" transform="translate(163.546 227.055)">
            <circle id="Ellipse_16" data-name="Ellipse 16" cx="26.149" cy="26.149" r="26.149" transform="translate(0 0)" fill="#54a7d1"/>
          </g>
          <g id="circle83516" transform="translate(169.501 33.615)">
            <circle id="Ellipse_17" data-name="Ellipse 17" cx="16.994" cy="16.994" r="16.994" transform="translate(0 0)" fill="#54a7d1"/>
          </g>
        </g>
      </g>
    </g>
    <g id="corona-5206890-2" data-name="corona-5206890" transform="matrix(0.875, 0.485, -0.485, 0.875, 1262.548, 1004.8)">
      <g id="Outline-Extra-fett-2" data-name="Outline-Extra-fett" transform="translate(-651.158 -598.454) rotate(-22.5)">
        <path id="Path_1-2" data-name="Path 1" d="M64.924,20.223c.111-2.212.183-4.039.183-5.088,0-2.756-1.436-3.861-2.536-4.972A5.482,5.482,0,0,1,60.608,6.1a5.379,5.379,0,0,1,3.249-5A11.766,11.766,0,0,1,68.722,0a11.378,11.378,0,0,1,4.814,1.01A5.255,5.255,0,0,1,76.806,5.9a5.714,5.714,0,0,1-1.939,4.208c-1.1,1.15-2.543,2.254-2.56,5.056,0,.725.085,2.626.22,5.081A48.3,48.3,0,0,1,84.4,22.72a6.011,6.011,0,0,0-.7-3.691,5,5,0,0,1-.194-4.108A4.912,4.912,0,0,1,88,11.864a10.533,10.533,0,0,1,4.41.787,10.191,10.191,0,0,1,3.63,2.524,4.8,4.8,0,0,1,1,5.275A5.211,5.211,0,0,1,93.934,23.3a6.254,6.254,0,0,0-3.181,2.13A48.7,48.7,0,0,1,100.22,31.8c1.686-1.524,3.067-2.8,3.823-3.555,1.949-1.949,1.715-3.745,1.723-5.309a5.48,5.48,0,0,1,1.486-4.262,5.378,5.378,0,0,1,5.832-1.238A11.766,11.766,0,0,1,117.3,20.1a11.381,11.381,0,0,1,2.69,4.119,5.255,5.255,0,0,1-1.145,5.769,5.714,5.714,0,0,1-4.346,1.6c-1.592.035-3.392-.2-5.385,1.764-.525.518-1.837,1.962-3.517,3.837a48.693,48.693,0,0,1,6.362,9.537,5.89,5.89,0,0,0,2.193-3.209,5,5,0,0,1,2.73-3.076,4.913,4.913,0,0,1,5.355.954,10.531,10.531,0,0,1,2.606,3.643,10.191,10.191,0,0,1,.836,4.342,4.8,4.8,0,0,1-2.968,4.474,5.211,5.211,0,0,1-4.214-.132,6.154,6.154,0,0,0-3.87-.675,48.318,48.318,0,0,1,2.433,11.845c2.272.115,4.152.19,5.222.19,2.757,0,3.86-1.436,4.972-2.535a5.481,5.481,0,0,1,4.064-1.963,5.379,5.379,0,0,1,5,3.249,11.766,11.766,0,0,1,1.1,4.864,11.377,11.377,0,0,1-1.01,4.814,5.255,5.255,0,0,1-4.889,3.27,5.714,5.714,0,0,1-4.208-1.938c-1.15-1.1-2.254-2.543-5.056-2.561-.736,0-2.682.088-5.192.226a48.288,48.288,0,0,1-2.518,12.1,5.862,5.862,0,0,0,3.81-.685,4.982,4.982,0,0,1,4.1-.2,4.9,4.9,0,0,1,3.043,4.505,10.62,10.62,0,0,1-.8,4.418,10.287,10.287,0,0,1-2.523,3.641,4.791,4.791,0,0,1-5.27,1.015,5.186,5.186,0,0,1-2.84-3.113,6.088,6.088,0,0,0-2.233-3.262,48.729,48.729,0,0,1-6.229,9.287c1.511,1.672,2.776,3.041,3.527,3.792,1.949,1.949,3.745,1.715,5.309,1.723a5.483,5.483,0,0,1,4.262,1.486,5.378,5.378,0,0,1,1.238,5.832,11.76,11.76,0,0,1-2.664,4.216,11.374,11.374,0,0,1-4.119,2.69,5.255,5.255,0,0,1-5.769-1.145,5.715,5.715,0,0,1-1.605-4.346c-.035-1.592.2-3.392-1.764-5.385-.513-.52-1.936-1.814-3.786-3.471a48.718,48.718,0,0,1-9.735,6.509,5.984,5.984,0,0,0,3.127,2.054,4.982,4.982,0,0,1,3.081,2.721,4.9,4.9,0,0,1-.968,5.35,10.63,10.63,0,0,1-3.655,2.606,10.284,10.284,0,0,1-4.349.844,4.791,4.791,0,0,1-4.481-2.954,5.187,5.187,0,0,1,.142-4.211,6.246,6.246,0,0,0,.713-3.729,48.316,48.316,0,0,1-11.618,2.38c-.112,2.221-.184,4.055-.184,5.107,0,2.757,1.436,3.86,2.535,4.972a5.481,5.481,0,0,1,1.963,4.064,5.379,5.379,0,0,1-3.249,5,11.765,11.765,0,0,1-4.864,1.1,11.378,11.378,0,0,1-4.814-1.01,5.255,5.255,0,0,1-3.27-4.889,5.714,5.714,0,0,1,1.938-4.208c1.1-1.15,2.543-2.254,2.561-5.056,0-.724-.085-2.616-.219-5.062a48.353,48.353,0,0,1-11.88-2.414,6.04,6.04,0,0,0,.706,3.664,5,5,0,0,1,.194,4.108,4.913,4.913,0,0,1-4.5,3.058,10.533,10.533,0,0,1-4.41-.788,10.191,10.191,0,0,1-3.63-2.524,4.8,4.8,0,0,1-1-5.275,5.211,5.211,0,0,1,3.107-2.849,6.324,6.324,0,0,0,3.146-2.08,48.7,48.7,0,0,1-9.591-6.4c-1.612,1.459-2.929,2.676-3.661,3.408-1.949,1.949-1.714,3.745-1.723,5.309a5.481,5.481,0,0,1-1.486,4.262A5.378,5.378,0,0,1,24.33,119.9a11.764,11.764,0,0,1-4.216-2.664,11.375,11.375,0,0,1-2.69-4.119,5.255,5.255,0,0,1,1.145-5.769,5.712,5.712,0,0,1,4.346-1.605c1.592-.035,3.392.2,5.385-1.764.508-.5,1.755-1.871,3.358-3.66a48.694,48.694,0,0,1-6.448-9.638,6.208,6.208,0,0,0-1.958,3.062,4.985,4.985,0,0,1-2.72,3.052,4.913,4.913,0,0,1-5.355-.954A10.534,10.534,0,0,1,12.572,92.2a10.193,10.193,0,0,1-.835-4.342A4.8,4.8,0,0,1,14.7,83.387a5.191,5.191,0,0,1,4.186.12,6.5,6.5,0,0,0,3.614.74,48.311,48.311,0,0,1-2.392-11.721c-2.162-.108-3.947-.178-4.978-.178-2.756,0-3.861,1.436-4.972,2.536A5.482,5.482,0,0,1,6.1,76.847a5.379,5.379,0,0,1-5-3.249A11.765,11.765,0,0,1,0,68.734a11.376,11.376,0,0,1,1.01-4.814A5.255,5.255,0,0,1,5.9,60.65a5.713,5.713,0,0,1,4.208,1.938c1.15,1.1,2.254,2.543,5.056,2.561.712,0,2.555-.082,4.945-.213a48.315,48.315,0,0,1,2.377-11.713,6.069,6.069,0,0,0-3.6.73,4.977,4.977,0,0,1-4.1.2,4.9,4.9,0,0,1-3.043-4.505,10.625,10.625,0,0,1,.8-4.418,10.282,10.282,0,0,1,2.524-3.641,4.792,4.792,0,0,1,5.27-1.015,5.176,5.176,0,0,1,2.833,3.1,6.382,6.382,0,0,0,2.014,3.119,48.728,48.728,0,0,1,6.554-9.788c-1.321-1.456-2.42-2.641-3.1-3.32-1.949-1.949-3.745-1.714-5.309-1.723a5.482,5.482,0,0,1-4.262-1.486,5.379,5.379,0,0,1-1.238-5.833,11.764,11.764,0,0,1,2.664-4.216,11.378,11.378,0,0,1,4.119-2.69,5.255,5.255,0,0,1,5.769,1.145,5.713,5.713,0,0,1,1.6,4.346c.035,1.592-.2,3.392,1.764,5.385.471.477,1.708,1.606,3.338,3.069a48.715,48.715,0,0,1,9.465-6.32,5.912,5.912,0,0,0-3.168-2.116,4.982,4.982,0,0,1-3.081-2.72,4.9,4.9,0,0,1,.969-5.35,10.624,10.624,0,0,1,3.655-2.606,10.282,10.282,0,0,1,4.349-.844,4.79,4.79,0,0,1,4.481,2.954,5.185,5.185,0,0,1-.142,4.211,6.191,6.191,0,0,0-.7,3.78A48.321,48.321,0,0,1,64.924,20.223Z" transform="translate(0 0)" fill="#c74b1a" fill-rule="evenodd"/>
      </g>
      <g id="Group_1-2" data-name="Group 1" transform="translate(-653.077 -599.249) rotate(-22.5)">
        <path id="Path_2-2" data-name="Path 2" d="M64.987,20.34c.074-1.6.12-2.913.12-3.737,0-2.207-1.231-3.049-2.111-3.939a6.843,6.843,0,0,1-2.388-5.1,6.772,6.772,0,0,1,4.057-6.311A13.337,13.337,0,0,1,70.171,0a12.958,12.958,0,0,1,5.475,1.158,6.651,6.651,0,0,1,4.1,6.21A7.072,7.072,0,0,1,77.4,12.593c-.891.931-2.138,1.782-2.152,4.049,0,.582.056,1.936.15,3.727a49.718,49.718,0,0,1,8.863,1.764c-.14-.39-.319-.745-.457-1.092a6.362,6.362,0,0,1,5.569-9.174,12.106,12.106,0,0,1,5.063.892,11.773,11.773,0,0,1,4.183,2.918,6.2,6.2,0,0,1,1.247,6.813,6.57,6.57,0,0,1-3.876,3.625c-.379.164-.8.3-1.208.5a50.152,50.152,0,0,1,6.869,4.7c1.23-1.12,2.226-2.047,2.824-2.646,1.561-1.561,1.286-3.026,1.293-4.278a6.843,6.843,0,0,1,1.916-5.293,6.772,6.772,0,0,1,7.332-1.594,13.336,13.336,0,0,1,4.78,3.006,12.951,12.951,0,0,1,3.053,4.69,6.65,6.65,0,0,1-1.494,7.288A7.072,7.072,0,0,1,116,34.526c-1.288.028-2.772-.252-4.385,1.341-.423.418-1.369,1.452-2.608,2.83a50.1,50.1,0,0,1,4.744,6.989c.217-.43.35-.87.514-1.264a6.361,6.361,0,0,1,10.393-2.676,12.11,12.11,0,0,1,3,4.175,11.772,11.772,0,0,1,.956,5.011,6.2,6.2,0,0,1-3.866,5.746,6.57,6.57,0,0,1-5.306-.113c-.419-.159-.844-.377-1.324-.524a49.738,49.738,0,0,1,1.756,8.916c1.664.078,3.027.126,3.875.126,2.207,0,3.049-1.23,3.939-2.111a6.844,6.844,0,0,1,5.1-2.388,6.771,6.771,0,0,1,6.311,4.057,13.326,13.326,0,0,1,1.255,5.505,12.956,12.956,0,0,1-1.157,5.475,6.651,6.651,0,0,1-6.21,4.1,7.072,7.072,0,0,1-5.224-2.346c-.931-.891-1.782-2.139-4.049-2.153-.594,0-1.989.058-3.835.156a49.712,49.712,0,0,1-1.826,9.161c.442-.146.837-.353,1.222-.507a6.335,6.335,0,0,1,9.161,5.568,12.2,12.2,0,0,1-.9,5.067,11.859,11.859,0,0,1-2.915,4.192,6.186,6.186,0,0,1-6.811,1.265,6.545,6.545,0,0,1-3.617-3.886c-.181-.422-.323-.894-.562-1.352a50.121,50.121,0,0,1-4.606,6.753c1.109,1.218,2.027,2.2,2.621,2.8,1.561,1.561,3.026,1.286,4.278,1.293a6.843,6.843,0,0,1,5.293,1.916,6.772,6.772,0,0,1,1.594,7.332,13.338,13.338,0,0,1-3.006,4.78,12.95,12.95,0,0,1-4.69,3.053,6.65,6.65,0,0,1-7.289-1.494,7.073,7.073,0,0,1-2.035-5.353c-.028-1.288.252-2.772-1.341-4.385-.413-.418-1.425-1.345-2.776-2.56a50.185,50.185,0,0,1-7.1,4.839c.371.166.744.282,1.083.422a6.335,6.335,0,0,1,2.668,10.383,12.193,12.193,0,0,1-4.184,3,11.861,11.861,0,0,1-5.014.964,6.187,6.187,0,0,1-5.758-3.852,6.547,6.547,0,0,1,.125-5.308c.143-.37.331-.745.476-1.159a49.74,49.74,0,0,1-8.6,1.683c-.075,1.614-.121,2.934-.121,3.762,0,2.207,1.23,3.049,2.111,3.939a6.843,6.843,0,0,1,2.388,5.1,6.771,6.771,0,0,1-4.057,6.311,13.326,13.326,0,0,1-5.505,1.255,12.956,12.956,0,0,1-5.475-1.157,6.651,6.651,0,0,1-4.1-6.21,7.073,7.073,0,0,1,2.346-5.224c.891-.931,2.139-1.782,2.153-4.049,0-.58-.055-1.923-.149-3.7a49.735,49.735,0,0,1-8.86-1.717c.139.383.315.732.45,1.074a6.361,6.361,0,0,1-5.569,9.173,12.1,12.1,0,0,1-5.063-.892,11.772,11.772,0,0,1-4.183-2.918,6.2,6.2,0,0,1-1.247-6.813,6.572,6.572,0,0,1,3.875-3.625c.355-.154.743-.28,1.13-.459a50.144,50.144,0,0,1-6.947-4.728c-1.157,1.055-2.093,1.928-2.665,2.5-1.561,1.561-1.286,3.026-1.293,4.278a6.843,6.843,0,0,1-1.916,5.293,6.772,6.772,0,0,1-7.332,1.594,13.339,13.339,0,0,1-4.78-3.006,12.954,12.954,0,0,1-3.053-4.69A6.65,6.65,0,0,1,19,107.783a7.071,7.071,0,0,1,5.353-2.035c1.288-.028,2.772.252,4.385-1.341.4-.4,1.287-1.362,2.447-2.651a50.152,50.152,0,0,1-4.737-6.931c-.138.329-.245.657-.371.958a6.359,6.359,0,0,1-10.382,2.65,12.1,12.1,0,0,1-3-4.175,11.77,11.77,0,0,1-.956-5.01A6.2,6.2,0,0,1,15.6,83.5a6.55,6.55,0,0,1,5.276.1c.331.126.666.289,1.028.425A49.75,49.75,0,0,1,20.234,75.4c-1.554-.072-2.826-.115-3.631-.115-2.207,0-3.049,1.231-3.939,2.111a6.844,6.844,0,0,1-5.1,2.387,6.772,6.772,0,0,1-6.311-4.057A13.336,13.336,0,0,1,0,70.222a12.955,12.955,0,0,1,1.158-5.475,6.651,6.651,0,0,1,6.21-4.1A7.072,7.072,0,0,1,12.593,63c.931.891,1.782,2.139,4.049,2.153.567,0,1.865-.053,3.587-.143a49.752,49.752,0,0,1,1.67-8.65c-.354.135-.68.3-1,.428a6.334,6.334,0,0,1-9.155-5.57,12.2,12.2,0,0,1,.9-5.067,11.861,11.861,0,0,1,2.915-4.192,6.186,6.186,0,0,1,6.811-1.265,6.534,6.534,0,0,1,3.611,3.871c.142.33.259.689.417,1.049a50.136,50.136,0,0,1,4.85-7.1c-.915-1-1.673-1.808-2.187-2.322-1.561-1.561-3.026-1.286-4.278-1.293a6.843,6.843,0,0,1-5.293-1.916A6.772,6.772,0,0,1,17.9,25.652a13.337,13.337,0,0,1,3.006-4.78,12.957,12.957,0,0,1,4.69-3.053,6.651,6.651,0,0,1,7.288,1.494,7.072,7.072,0,0,1,2.035,5.353c.028,1.288-.252,2.772,1.341,4.385.366.37,1.2,1.142,2.333,2.16a50.169,50.169,0,0,1,6.871-4.673c-.4-.189-.806-.312-1.173-.464A6.335,6.335,0,0,1,41.62,15.691a12.2,12.2,0,0,1,4.184-3,11.861,11.861,0,0,1,5.013-.964,6.186,6.186,0,0,1,5.758,3.852,6.544,6.544,0,0,1-.125,5.308c-.148.386-.347.777-.493,1.212A49.737,49.737,0,0,1,64.987,20.34ZM66.5,23.156a1.469,1.469,0,0,0,1.358-1.391c.113-2.244.185-4.1.185-5.161,0-3.306-1.641-4.672-2.96-6.005a4.122,4.122,0,0,1-1.539-3.031,3.986,3.986,0,0,1,2.441-3.688,10.191,10.191,0,0,1,4.224-.941,9.8,9.8,0,0,1,4.153.863,3.86,3.86,0,0,1,2.442,3.568,4.356,4.356,0,0,1-1.531,3.192c-1.311,1.37-2.947,2.725-2.968,6.062,0,.738.085,2.672.222,5.171a1.469,1.469,0,0,0,1.349,1.384,46.833,46.833,0,0,1,11.51,2.4,1.468,1.468,0,0,0,1.92-1.111,7.38,7.38,0,0,0-.778-4.511,3.647,3.647,0,0,1-.206-2.994A3.521,3.521,0,0,1,89.571,14.8a8.962,8.962,0,0,1,3.756.683A8.617,8.617,0,0,1,96.4,17.61a3.407,3.407,0,0,1,.754,3.738,3.855,3.855,0,0,1-2.339,2.074,7.619,7.619,0,0,0-3.8,2.638,1.469,1.469,0,0,0,.534,2.147,47.232,47.232,0,0,1,9.181,6.174,1.469,1.469,0,0,0,1.942-.025c1.71-1.546,3.11-2.839,3.877-3.606,2.338-2.338,2.143-4.464,2.153-6.339a4.122,4.122,0,0,1,1.056-3.232,3.986,3.986,0,0,1,4.333-.882,10.194,10.194,0,0,1,3.652,2.321,9.8,9.8,0,0,1,2.327,3.547,3.86,3.86,0,0,1-.8,4.25,4.357,4.357,0,0,1-3.34,1.175c-1.9.041-4.011-.157-6.385,2.188-.534.527-1.87,1.995-3.579,3.9a1.469,1.469,0,0,0-.023,1.933,47.223,47.223,0,0,1,6.17,9.25,1.469,1.469,0,0,0,2.113.564,7.25,7.25,0,0,0,2.745-3.874,3.645,3.645,0,0,1,1.943-2.287,3.52,3.52,0,0,1,3.834.718,8.96,8.96,0,0,1,2.212,3.112,8.612,8.612,0,0,1,.715,3.673,3.407,3.407,0,0,1-2.071,3.2,3.854,3.854,0,0,1-3.123-.15,7.51,7.51,0,0,0-4.7-.74,1.469,1.469,0,0,0-1.084,1.91,46.851,46.851,0,0,1,2.359,11.486,1.469,1.469,0,0,0,1.39,1.353c2.3.116,4.211.191,5.3.191,3.306,0,4.672-1.641,6-2.96a4.123,4.123,0,0,1,3.032-1.539,3.986,3.986,0,0,1,3.687,2.441,10.192,10.192,0,0,1,.941,4.224,9.794,9.794,0,0,1-.863,4.153,3.86,3.86,0,0,1-3.567,2.442,4.356,4.356,0,0,1-3.192-1.53c-1.37-1.311-2.725-2.947-6.062-2.968-.749,0-2.729.088-5.282.228a1.469,1.469,0,0,0-1.383,1.353A46.837,46.837,0,0,1,114.621,85.6a1.468,1.468,0,0,0,1.072,1.915,7.223,7.223,0,0,0,4.673-.757,3.622,3.622,0,0,1,2.986-.215A3.506,3.506,0,0,1,125.5,89.79a9.056,9.056,0,0,1-.691,3.768,8.707,8.707,0,0,1-2.132,3.091,3.4,3.4,0,0,1-3.729.766,3.829,3.829,0,0,1-2.062-2.339,7.444,7.444,0,0,0-2.776-3.91,1.469,1.469,0,0,0-2.113.555,47.264,47.264,0,0,1-6.042,9.007,1.469,1.469,0,0,0,.028,1.938c1.533,1.7,2.816,3.084,3.578,3.846,2.338,2.338,4.464,2.143,6.339,2.153a4.122,4.122,0,0,1,3.231,1.056,3.986,3.986,0,0,1,.882,4.333,10.189,10.189,0,0,1-2.321,3.652,9.8,9.8,0,0,1-3.547,2.326,3.86,3.86,0,0,1-4.25-.8,4.356,4.356,0,0,1-1.175-3.339c-.041-1.9.157-4.011-2.188-6.385-.522-.529-1.969-1.847-3.852-3.533a1.468,1.468,0,0,0-1.937-.02,47.249,47.249,0,0,1-9.441,6.313,1.468,1.468,0,0,0-.54,2.152,7.354,7.354,0,0,0,3.77,2.57,3.623,3.623,0,0,1,2.287,1.932,3.506,3.506,0,0,1-.73,3.826,9.05,9.05,0,0,1-3.126,2.214,8.7,8.7,0,0,1-3.685.723,3.4,3.4,0,0,1-3.2-2.056,3.829,3.829,0,0,1,.159-3.114,7.614,7.614,0,0,0,.787-4.523,1.468,1.468,0,0,0-1.914-1.126,46.87,46.87,0,0,1-11.266,2.308,1.469,1.469,0,0,0-1.35,1.39c-.113,2.253-.186,4.114-.186,5.181,0,3.306,1.641,4.672,2.96,6a4.123,4.123,0,0,1,1.539,3.032,3.986,3.986,0,0,1-2.441,3.687,10.192,10.192,0,0,1-4.224.941,9.794,9.794,0,0,1-4.153-.863,3.859,3.859,0,0,1-2.442-3.567,4.357,4.357,0,0,1,1.53-3.192c1.312-1.37,2.947-2.725,2.968-6.062,0-.737-.085-2.663-.221-5.152a1.469,1.469,0,0,0-1.357-1.384,46.886,46.886,0,0,1-11.519-2.34,1.469,1.469,0,0,0-1.915,1.122,7.411,7.411,0,0,0,.785,4.476,3.644,3.644,0,0,1,.206,2.994,3.521,3.521,0,0,1-3.246,2.164,8.969,8.969,0,0,1-3.756-.683,8.618,8.618,0,0,1-3.077-2.129,3.408,3.408,0,0,1-.754-3.738,3.853,3.853,0,0,1,2.339-2.073,7.692,7.692,0,0,0,3.755-2.572,1.469,1.469,0,0,0-.529-2.165,47.246,47.246,0,0,1-9.3-6.209,1.469,1.469,0,0,0-1.94.028c-1.636,1.48-2.971,2.716-3.714,3.458-2.338,2.338-2.143,4.464-2.153,6.34a4.122,4.122,0,0,1-1.056,3.231,3.986,3.986,0,0,1-4.333.882,10.189,10.189,0,0,1-3.652-2.321,9.8,9.8,0,0,1-2.326-3.547,3.86,3.86,0,0,1,.8-4.25,4.356,4.356,0,0,1,3.34-1.175c1.9-.041,4.011.157,6.385-2.188.517-.51,1.788-1.9,3.42-3.725a1.469,1.469,0,0,0,.021-1.936,47.234,47.234,0,0,1-6.253-9.348,1.469,1.469,0,0,0-2.186-.513,7.587,7.587,0,0,0-2.436,3.675,3.625,3.625,0,0,1-1.934,2.264A3.52,3.52,0,0,1,17.6,96.2a8.962,8.962,0,0,1-2.211-3.112,8.616,8.616,0,0,1-.715-3.673,3.407,3.407,0,0,1,2.071-3.2,3.83,3.83,0,0,1,3.1.14,7.88,7.88,0,0,0,4.358.818,1.469,1.469,0,0,0,1.168-1.922,46.843,46.843,0,0,1-2.32-11.365,1.469,1.469,0,0,0-1.391-1.353c-2.194-.109-4-.18-5.051-.18-3.306,0-4.672,1.641-6.005,2.96a4.122,4.122,0,0,1-3.031,1.539,3.986,3.986,0,0,1-3.688-2.44,10.193,10.193,0,0,1-.941-4.224A9.8,9.8,0,0,1,3.8,66.03a3.86,3.86,0,0,1,3.568-2.442,4.356,4.356,0,0,1,3.192,1.53c1.37,1.311,2.725,2.947,6.062,2.968.725,0,2.6-.082,5.035-.215a1.469,1.469,0,0,0,1.384-1.354,46.847,46.847,0,0,1,2.3-11.357,1.469,1.469,0,0,0-1.142-1.916,7.446,7.446,0,0,0-4.4.814,3.616,3.616,0,0,1-2.98.213,3.507,3.507,0,0,1-2.149-3.248,9.053,9.053,0,0,1,.691-3.768A8.7,8.7,0,0,1,17.5,44.163a3.4,3.4,0,0,1,3.729-.766,3.817,3.817,0,0,1,2.056,2.327,7.753,7.753,0,0,0,2.49,3.719,1.469,1.469,0,0,0,2.183-.518,47.25,47.25,0,0,1,6.356-9.493,1.469,1.469,0,0,0-.025-1.945c-1.342-1.48-2.459-2.682-3.148-3.372-2.338-2.338-4.464-2.143-6.339-2.153a4.122,4.122,0,0,1-3.231-1.056,3.986,3.986,0,0,1-.882-4.333,10.192,10.192,0,0,1,2.321-3.652,9.8,9.8,0,0,1,3.547-2.327,3.86,3.86,0,0,1,4.25.8,4.356,4.356,0,0,1,1.175,3.34c.041,1.9-.157,4.011,2.188,6.385.48.486,1.74,1.638,3.4,3.13a1.469,1.469,0,0,0,1.934.025,47.265,47.265,0,0,1,9.18-6.13,1.469,1.469,0,0,0,.55-2.131,7.28,7.28,0,0,0-3.825-2.651,3.623,3.623,0,0,1-2.287-1.932,3.507,3.507,0,0,1,.731-3.825,9.051,9.051,0,0,1,3.126-2.214,8.7,8.7,0,0,1,3.685-.723,3.4,3.4,0,0,1,3.2,2.056,3.829,3.829,0,0,1-.159,3.114,7.553,7.553,0,0,0-.774,4.59,1.469,1.469,0,0,0,1.915,1.108A46.86,46.86,0,0,1,66.5,23.156Z" transform="translate(0 0)" fill="#54a7d1" fill-rule="evenodd"/>
      </g>
      <g id="Virus-12-2" data-name="Virus-12" transform="translate(-649.442 -597.743) rotate(-22.5)">
        <path id="Path_3-2" data-name="Path 3" d="M64.862,20.146c.145-2.761.245-5.083.245-6.325,0-5.414-4.5-5.52-4.5-9.037C60.608.928,65.072.032,67.426,0c2.258-.03,6.753.844,6.753,4.586s-4.465,3.789-4.5,9.255c-.006.847.114,3.273.285,6.319A47.023,47.023,0,0,1,83.921,23.1l.022-.051c1.869-4.425-1.757-6.059-.543-8.933,1.332-3.152,5.276-2.349,7.2-1.565,1.849.752,5.208,3.013,3.916,6.071s-4.944,1.561-6.859,6.017l-.02.047a47.4,47.4,0,0,1,11.278,7.552c2.1-1.887,3.849-3.493,4.74-4.384,3.828-3.828.722-7.085,3.209-9.571,2.727-2.727,6.517-.2,8.2,1.438,1.617,1.575,4.178,5.372,1.532,8.018s-5.836-.478-9.726,3.363c-.61.6-2.276,2.443-4.347,4.76a47.408,47.408,0,0,1,7.521,11.32l.175-.072c4.428-1.861,2.974-5.564,5.85-6.773,3.155-1.326,5.416,2,6.248,3.911.8,1.829,1.623,5.793-1.438,7.08s-4.628-2.336-9.111-.484l-.151.064a47.058,47.058,0,0,1,2.887,13.921c2.819.149,5.194.252,6.455.252,5.414,0,5.52-4.5,9.037-4.5,3.857,0,4.752,4.464,4.784,6.818.03,2.258-.844,6.753-4.586,6.753s-3.789-4.464-9.255-4.5c-.857-.005-3.333.118-6.434.292a47.024,47.024,0,0,1-2.974,14.158l.182.078c4.409,1.862,6.049-1.778,8.912-.568,3.141,1.327,2.329,5.283,1.542,7.218-.755,1.855-3.02,5.229-6.066,3.942s-1.544-4.952-5.983-6.861l-.185-.077a47.434,47.434,0,0,1-7.4,11.074c1.873,2.082,3.467,3.82,4.354,4.707,3.828,3.828,7.085.722,9.571,3.209,2.727,2.727.2,6.517-1.438,8.2-1.575,1.617-5.372,4.178-8.018,1.532s.478-5.836-3.363-9.726c-.6-.606-2.418-2.254-4.713-4.3a47.417,47.417,0,0,1-11.542,7.682l.02.048c1.854,4.412,5.57,2.952,6.775,5.818,1.321,3.143-2.023,5.407-3.938,6.243-1.836.8-5.813,1.633-7.094-1.416s2.354-4.623.509-9.089l-.014-.034a47.066,47.066,0,0,1-13.721,2.842c-.146,2.768-.245,5.094-.245,6.338,0,5.414,4.5,5.52,4.5,9.037,0,3.857-4.464,4.752-6.818,4.784-2.257.03-6.753-.844-6.753-4.586s4.465-3.789,4.5-9.255c.005-.846-.114-3.267-.285-6.306a47.076,47.076,0,0,1-13.972-2.87l-.008.02c-1.869,4.425,1.757,6.06.543,8.933-1.332,3.152-5.276,2.349-7.2,1.565-1.849-.752-5.208-3.013-3.916-6.071s4.941-1.561,6.858-6.013A47.421,47.421,0,0,1,35.7,102.617c-2.025,1.822-3.707,3.368-4.575,4.236-3.828,3.828-.722,7.085-3.209,9.571-2.727,2.727-6.517.2-8.2-1.438-1.618-1.575-4.178-5.372-1.532-8.018s5.836.478,9.726-3.363c.595-.588,2.193-2.35,4.191-4.586a47.408,47.408,0,0,1-7.637-11.475c-4.31,1.874-2.9,5.531-5.754,6.731-3.155,1.326-5.416-2-6.248-3.911-.8-1.829-1.622-5.793,1.438-7.08,3.034-1.275,4.6,2.274,9,.531a47.055,47.055,0,0,1-2.864-13.854c-2.711-.142-4.986-.239-6.211-.239-5.414,0-5.52,4.5-9.037,4.5C.928,74.221.032,69.757,0,67.4c-.03-2.257.844-6.753,4.586-6.753s3.789,4.464,9.255,4.5c.834.005,3.2-.111,6.188-.278a47.051,47.051,0,0,1,2.837-13.818c-4.388-1.837-6.027,1.787-8.885.579-3.141-1.327-2.329-5.283-1.542-7.218.755-1.856,3.019-5.229,6.066-3.942s1.556,4.921,5.927,6.836A47.441,47.441,0,0,1,32.179,35.68c-1.689-1.872-3.112-3.418-3.932-4.237-3.828-3.828-7.084-.722-9.571-3.209-2.727-2.727-.2-6.517,1.438-8.2,1.575-1.618,5.372-4.178,8.018-1.532s-.478,5.836,3.363,9.726c.559.566,2.18,2.038,4.26,3.9a47.439,47.439,0,0,1,11.261-7.488l-.047-.113C45.116,20.11,41.4,21.57,40.2,18.7c-1.321-3.143,2.024-5.408,3.938-6.243,1.836-.8,5.813-1.634,7.094,1.416s-2.354,4.622-.51,9.089l.037.087A47.054,47.054,0,0,1,64.862,20.146Z" transform="translate(0 0)" fill="#ceecfc" fill-rule="evenodd"/>
      </g>
      <g id="Group_3-2" data-name="Group 3" transform="translate(-600.296 -605.762)">
        <g id="Group_2-2" data-name="Group 2" transform="translate(0 0)">
          <g id="circle835-2" data-name="circle835" transform="translate(22.401 86.272) rotate(-135.551)">
            <circle id="Ellipse_1-2" data-name="Ellipse 1" cx="2.856" cy="2.856" r="2.856" transform="translate(0 0)" fill="#54a7d1"/>
          </g>
          <g id="circle8351-2" data-name="circle8351" transform="translate(46.706 8.078) rotate(-135.551)">
            <circle id="Ellipse_2-2" data-name="Ellipse 2" cx="2.856" cy="2.856" r="2.856" transform="translate(0 0)" fill="#54a7d1"/>
          </g>
          <g id="circle8352-2" data-name="circle8352" transform="translate(65.462 26.74) rotate(-135.549)">
            <circle id="Ellipse_3-2" data-name="Ellipse 3" cx="2.168" cy="2.168" r="2.168" transform="translate(0 0)" fill="#54a7d1"/>
          </g>
          <g id="circle8353-2" data-name="circle8353" transform="matrix(-0.714, -0.7, 0.7, -0.714, 2.843, 67.506)">
            <circle id="Ellipse_4-2" data-name="Ellipse 4" cx="1.979" cy="1.979" r="1.979" transform="translate(0 0)" fill="#54a7d1"/>
          </g>
          <g id="circle8354-2" data-name="circle8354" transform="translate(3.146 44.449) rotate(-135.55)">
            <circle id="Ellipse_5-2" data-name="Ellipse 5" cx="2.204" cy="2.204" r="2.204" transform="translate(0 0)" fill="#54a7d1"/>
          </g>
          <g id="circle8355-2" data-name="circle8355" transform="translate(30.957 7.808) rotate(-135.55)">
            <circle id="Ellipse_6-2" data-name="Ellipse 6" cx="2.204" cy="2.204" r="2.204" transform="translate(0 0)" fill="#54a7d1"/>
          </g>
          <g id="circle8356-2" data-name="circle8356" transform="matrix(-0.714, -0.7, 0.7, -0.714, 37.603, 91.37)">
            <circle id="Ellipse_7-2" data-name="Ellipse 7" cx="2.226" cy="2.226" r="2.226" transform="translate(0 0)" fill="#54a7d1"/>
          </g>
          <g id="circle8357-2" data-name="circle8357" transform="translate(55.078 87.471) rotate(-135.55)">
            <circle id="Ellipse_8-2" data-name="Ellipse 8" cx="2.411" cy="2.411" r="2.411" transform="translate(0 0)" fill="#54a7d1"/>
          </g>
          <g id="circle8358-2" data-name="circle8358" transform="translate(9.407 22.132) rotate(-47.887)">
            <circle id="Ellipse_9-2" data-name="Ellipse 9" cx="2.856" cy="2.856" r="2.856" transform="translate(0 0)" fill="#54a7d1"/>
          </g>
          <g id="circle8359-2" data-name="circle8359" transform="matrix(0.671, -0.742, 0.742, 0.671, 70.521, 66.078)">
            <circle id="Ellipse_10-2" data-name="Ellipse 10" cx="1.811" cy="1.811" r="1.811" transform="translate(0 0)" fill="#54a7d1"/>
          </g>
          <g id="circle83510-2" data-name="circle83510" transform="matrix(0.671, -0.742, 0.742, 0.671, 72.541, 49.329)">
            <circle id="Ellipse_11-2" data-name="Ellipse 11" cx="1.811" cy="1.811" r="1.811" transform="translate(0 0)" fill="#54a7d1"/>
          </g>
          <g id="circle83511-2" data-name="circle83511" transform="matrix(0.001, -1, 1, 0.001, 58.408, 41.905)">
            <circle id="Ellipse_12-2" data-name="Ellipse 12" cx="3.684" cy="3.684" r="3.684" transform="translate(0 0)" fill="#54a7d1"/>
          </g>
          <g id="circle83512-2" data-name="circle83512" transform="translate(51.415 56.878)">
            <circle id="Ellipse_13-2" data-name="Ellipse 13" cx="3.63" cy="3.63" r="3.63" transform="translate(0 0)" fill="#54a7d1"/>
          </g>
          <g id="circle83513-2" data-name="circle83513" transform="translate(23.357 64.867) rotate(-89.969)">
            <circle id="Ellipse_14-2" data-name="Ellipse 14" cx="3.918" cy="3.918" r="3.918" transform="translate(0 0)" fill="#54a7d1"/>
          </g>
          <g id="circle83514-2" data-name="circle83514" transform="translate(13.988 42.375) rotate(-89.969)">
            <circle id="Ellipse_15-2" data-name="Ellipse 15" cx="3.918" cy="3.918" r="3.918" transform="translate(0 0)" fill="#54a7d1"/>
          </g>
          <g id="circle83515-2" data-name="circle83515" transform="translate(33.548 46.576)">
            <circle id="Ellipse_16-2" data-name="Ellipse 16" cx="5.364" cy="5.364" r="5.364" transform="translate(0 0)" fill="#54a7d1"/>
          </g>
          <g id="circle83516-2" data-name="circle83516" transform="translate(34.77 6.896)">
            <circle id="Ellipse_17-2" data-name="Ellipse 17" cx="3.486" cy="3.486" r="3.486" transform="translate(0 0)" fill="#54a7d1"/>
          </g>
        </g>
      </g>
    </g>
  </g>
</svg>
